<?xml version="1.0" encoding="UTF-8" standalone="no"?>
<!-- Created with Inkscape (http://www.inkscape.org/) -->

<svg
   xmlns:dc="http://purl.org/dc/elements/1.1/"
   xmlns:cc="http://creativecommons.org/ns#"
   xmlns:rdf="http://www.w3.org/1999/02/22-rdf-syntax-ns#"
   xmlns:svg="http://www.w3.org/2000/svg"
   xmlns="http://www.w3.org/2000/svg"
   xmlns:sodipodi="http://sodipodi.sourceforge.net/DTD/sodipodi-0.dtd"
   xmlns:inkscape="http://www.inkscape.org/namespaces/inkscape"
   width="650"
   height="650"
   id="svg2"
   version="1.1"
   inkscape:version="0.48.4 r9939"
   sodipodi:docname="Documento nuevo 1">
  <defs
     id="defs4" />
  <sodipodi:namedview
     id="base"
     pagecolor="#ffffff"
     bordercolor="#666666"
     borderopacity="1.0"
     inkscape:pageopacity="0.0"
     inkscape:pageshadow="2"
     inkscape:zoom="0.7"
     inkscape:cx="482.85983"
     inkscape:cy="208.52356"
     inkscape:document-units="px"
     inkscape:current-layer="layer1"
     showgrid="false"
     inkscape:window-width="1280"
     inkscape:window-height="961"
     inkscape:window-x="-8"
     inkscape:window-y="-8"
     inkscape:window-maximized="1" />
  <metadata
     id="metadata7">
    <rdf:RDF>
      <cc:Work
         rdf:about="">
        <dc:format>image/svg+xml</dc:format>
        <dc:type
           rdf:resource="http://purl.org/dc/dcmitype/StillImage" />
        <dc:title></dc:title>
      </cc:Work>
    </rdf:RDF>
  </metadata>
  <g
     inkscape:label="Capa 1"
     inkscape:groupmode="layer"
     id="layer1"
     transform="translate(0,-402.36218)">
    <path
       style="fill:#000000"
       d="m 294.56004,1051.2853 c -14.85927,-1.9457 -33.3336,-5.2637 -45.5125,-8.1742 -7.2265,-1.727 -13.90341,-3.143 -14.83759,-3.1465 -0.93417,0 -2.90132,-0.634 -4.37142,-1.4012 -1.47012,-0.7671 -5.42572,-2.2032 -8.79022,-3.1912 -19.7341,-5.7952 -49.03747,-19.7424 -71.26832,-33.9209 C 85.112552,960.20759 36.117179,895.38388 13.785412,821.52267 -2.3538107,768.143 -4.1435819,707.17428 8.813903,652.16729 30.638153,559.51913 94.135639,479.52247 179.77015,436.78979 c 14.84795,-7.40932 27.57326,-12.63308 35.78598,-14.69021 3.63764,-0.91116 8.47535,-2.52625 10.75047,-3.58909 5.10529,-2.38498 31.55705,-8.71442 45.5023,-10.88789 5.68779,-0.88649 12.66826,-2.13178 15.51215,-2.76732 7.16805,-1.60188 54.84868,-2.36366 65.66809,-1.04916 23.40763,2.8439 55.08933,9.13177 68.25346,13.54626 3.12828,1.04905 7.78193,2.49883 10.34143,3.22173 2.55951,0.72291 8.0143,2.86774 12.12182,4.76629 4.10741,1.89857 8.1203,3.45193 8.91742,3.45193 2.25112,0 26.8173,12.39214 39.45815,19.90424 65.45848,38.90017 117.07309,103.03282 141.19097,175.43372 11.38436,34.17546 16.51589,66.34242 16.51589,103.52946 0,10.60923 -0.49308,24.373 -1.09568,30.58616 -9.16354,94.47287 -57.2994,178.02301 -134.89417,234.1375 -24.55408,17.75689 -61.09533,36.31609 -84.59406,42.96519 -3.29954,0.9336 -7.25514,2.3527 -8.79022,3.1535 -1.53508,0.801 -3.55539,1.459 -4.48953,1.4625 -0.93414,0 -7.61109,1.4195 -14.83758,3.1465 -12.53991,2.9967 -30.92564,6.2569 -46.54668,8.2536 -8.72714,1.1154 -51.28503,1.0591 -59.98032,-0.08 z m 60.05922,-6.2052 c 41.48932,-4.0243 78.58435,-14.8795 115.71464,-33.862 16.69211,-8.5336 40.10863,-23.60434 54.32303,-34.96191 12.46981,-9.96356 39.54585,-37.23282 49.68635,-50.04092 35.20937,-44.47153 57.3206,-95.51541 66.29976,-153.05321 2.03891,-13.06524 2.34006,-18.92131 2.34006,-45.50231 0,-33.59978 -1.3598,-46.49115 -7.7446,-73.42417 -10.60566,-44.73748 -32.65907,-89.93259 -61.56359,-126.16549 -9.03613,-11.32714 -37.6908,-39.98182 -49.01798,-49.01797 -44.61656,-35.59252 -98.65582,-58.88122 -156.67271,-67.5195 -19.31449,-2.87578 -69.21738,-2.6031 -88.93631,0.48597 -47.5717,7.45233 -90.99404,24.15828 -129.46408,49.80896 -21.21095,14.14282 -30.30849,21.64898 -49.50413,40.84461 -19.139223,19.13923 -26.720787,28.31806 -40.624513,49.18323 -35.002442,52.52779 -52.9040413,112.01624 -52.9040413,175.80436 0,63.75765 17.9183323,123.30169 52.9040413,175.80437 13.903726,20.86516 21.48529,30.044 40.624513,49.18322 19.19564,19.19564 28.29318,26.7018 49.50413,40.84462 42.18678,28.12894 89.90718,45.38774 141.35671,51.12384 14.91132,1.6624 48.78013,1.9094 63.67872,0.4643 z m -57.91016,-13.5145 c -86.04877,-8.271 -164.15121,-52.08936 -216.4382,-121.42989 -6.825015,-9.051 -14.773586,-21.01383 -14.773586,-22.23464 0,-1.38472 20.787977,-12.67031 21.602975,-11.72805 0.437877,0.50625 3.274046,4.64336 6.302618,9.19359 5.725565,8.60231 19.455143,26.37065 20.376593,26.37065 0.29061,0 5.90773,-4.65912 12.48246,-10.35361 l 11.95405,-10.35361 12.50392,12.20711 c 32.87384,32.09353 70.24511,53.28923 113.44886,64.34432 l 13.04276,3.33741 -1.38623,7.2752 c -0.76242,4.00134 -2.16035,11.1731 -3.10649,15.93722 -0.94614,4.76415 -1.53793,8.8285 -1.3151,9.0321 0.85235,0.7784 23.65446,3.6697 34.27336,4.346 l 11.11704,0.7078 0,12.2574 0,12.2574 -5.42926,-0.1398 c -2.98609,-0.077 -9.58123,-0.5388 -14.65577,-1.0266 z m 36.63132,-10.9578 0,-12.3906 11.11704,-0.7078 c 10.61889,-0.6763 33.42103,-3.5676 34.27337,-4.346 0.22286,-0.2036 -0.36898,-4.26795 -1.31512,-9.0321 -0.94614,-4.76412 -2.34409,-11.93588 -3.10646,-15.93722 l -1.38627,-7.2752 13.04282,-3.33741 c 43.20372,-11.05509 80.57497,-32.25079 113.44883,-64.34432 l 12.50393,-12.20711 11.95408,10.35361 c 6.57467,5.69449 12.19182,10.35361 12.48242,10.35361 0.93497,0 14.68897,-17.83343 20.33839,-26.37065 3.01101,-4.55023 5.8487,-8.68734 6.30579,-9.19359 0.84966,-0.94092 21.63801,10.32662 21.63801,11.72805 0,2.68444 -16.82407,25.66825 -29.66606,40.52775 -39.46022,45.6593 -95.51348,80.02438 -154.92853,94.98338 -16.6525,4.1926 -39.0024,7.7284 -56.10227,8.8753 l -10.59997,0.7109 0,-12.3906 z M 312.65755,918.83126 c -10.13016,-0.56397 -23.52208,-2.32861 -24.37572,-3.21198 -0.13952,-0.14438 3.81106,-20.55877 8.77898,-45.3653 l 9.03272,-45.10278 -8.25194,-2.38445 c -4.53865,-1.31144 -11.78727,-4.09712 -16.10819,-6.19038 -8.72077,-4.22479 -22.92724,-14.50146 -27.94134,-20.21222 l -3.25482,-3.70703 -10.04704,8.76181 c -5.52587,4.81899 -21.21578,18.57004 -34.86647,30.55788 l -24.81944,21.79607 -3.38249,-3.85186 c -5.38161,-6.1284 -17.12948,-23.74893 -22.21822,-33.32494 -6.39208,-12.02863 -11.76192,-25.64447 -10.54019,-26.72587 0.53902,-0.47711 19.82729,-7.28659 42.86283,-15.13218 23.03554,-7.8456 42.24264,-14.58504 42.68244,-14.97654 0.4398,-0.39151 -0.21742,-4.86603 -1.46047,-9.94339 -1.71116,-6.98933 -2.2601,-12.37132 -2.2601,-22.15835 0,-9.78703 0.54894,-15.16902 2.2601,-22.15835 1.24305,-5.07735 1.90027,-9.55279 1.46047,-9.94542 -0.4398,-0.39262 -19.47051,-7.10991 -42.29047,-14.92731 -22.81996,-7.8174 -42.05661,-14.56311 -42.74811,-14.99048 -3.87364,-2.39406 19.16392,-45.45163 32.2307,-60.2397 l 3.40351,-3.85186 24.81944,21.79607 c 13.65069,11.98784 29.28361,25.68925 34.73982,30.44758 l 9.92037,8.6515 5.32812,-5.1356 c 11.45161,-11.03789 25.27766,-19.25655 39.98215,-23.76671 3.98145,-1.22117 7.82071,-2.40122 8.53168,-2.6223 0.71097,-0.22109 1.27272,-1.23097 1.24842,-2.24419 -0.0248,-1.01321 -3.92726,-21.38751 -8.67316,-45.27622 -4.74578,-23.88871 -8.52663,-43.55005 -8.40185,-43.69186 1.1423,-1.29817 23.84813,-3.39428 36.76799,-3.39428 12.91987,0 35.62572,2.09611 36.76804,3.39428 0.12472,0.14181 -3.65611,19.80315 -8.4019,43.69186 -4.74589,23.88871 -8.64875,44.26301 -8.67315,45.27622 -0.0248,1.01322 0.53744,2.0231 1.24841,2.24419 0.71098,0.22108 4.55024,1.40113 8.53169,2.6223 14.70448,4.51016 28.53056,12.72882 39.98215,23.76671 l 5.32811,5.1356 9.92044,-8.6515 c 5.45614,-4.75833 21.08907,-18.45974 34.73977,-30.44758 l 24.81944,-21.79607 3.40346,3.85186 c 13.06682,14.78807 36.10443,57.84564 32.23074,60.2397 -0.69154,0.42737 -19.92815,7.17308 -42.74808,14.99048 -22.82002,7.8174 -41.85064,14.53469 -42.29046,14.92731 -0.43982,0.39263 0.21738,4.86807 1.46042,9.94542 1.71119,6.98933 2.26012,12.37132 2.26012,22.15835 0,9.78703 -0.54893,15.16902 -2.26012,22.15835 -1.24304,5.07736 -1.90024,9.55188 -1.46042,9.94339 0.43982,0.3915 19.64686,7.13094 42.6824,14.97654 23.03555,7.84559 42.32387,14.65507 42.86287,15.13218 1.22628,1.08543 -4.17825,14.7478 -10.57215,26.72587 -5.16938,9.68408 -16.90266,27.30813 -22.18631,33.32494 l -3.38247,3.85186 -24.81944,-21.79607 c -13.6507,-11.98784 -29.27112,-25.67841 -34.71216,-30.42347 l -9.89272,-8.62741 -6.65358,6.23719 c -12.0822,11.32603 -25.81563,19.22779 -41.08889,23.64105 l -8.12247,2.34703 9.03273,45.10278 c 4.96792,24.80653 8.87615,45.26331 8.68483,45.4595 -0.76898,0.78849 -20.1781,3.14694 -28.41815,3.45318 -4.83462,0.17968 -14.14191,0.0288 -20.68287,-0.3354 z M 51.566908,863.19332 C 37.860341,835.9019 28.026196,804.51843 22.869141,771.61084 c -1.944014,-12.40497 -2.26889,-18.69811 -2.26889,-43.95109 0,-25.25297 0.324876,-31.54611 2.26889,-43.95109 3.970914,-25.33874 11.144197,-51.25189 20.270564,-73.22642 4.554098,-10.96542 12.819819,-27.60255 13.713578,-27.60255 0.572905,0 16.365297,8.92283 19.844693,11.21241 1.08249,0.71233 0.36496,2.91933 -3.361204,10.33857 -5.039297,10.03383 -13.010174,29.33055 -13.010174,31.49633 0,0.75434 6.284634,3.37679 14.995078,6.25715 8.247293,2.72721 14.992193,5.2747 14.988667,5.66109 -0.0031,0.3864 -1.41717,5.58888 -3.141438,11.56105 -1.724259,5.97218 -4.367167,17.14093 -5.873117,24.81944 -2.549215,12.9979 -2.742693,15.95834 -2.804887,42.91695 -0.07497,32.50034 1.290911,43.69536 8.306002,68.07763 1.935916,6.72864 3.519851,12.36296 3.519851,12.52073 0,0.15776 -6.631444,2.51313 -14.736542,5.23415 -8.105098,2.72103 -15.055493,5.23057 -15.445334,5.57679 -0.918909,0.81606 6.676977,19.63562 12.908673,31.98249 2.674915,5.29981 4.863483,9.8108 4.863483,10.02442 0,0.51208 -20.091874,11.88093 -20.996873,11.88093 -0.38466,0 -2.789126,-4.16093 -5.343253,-9.2465 z m 531.519122,3.95276 c -5.11901,-2.90528 -9.67689,-5.62244 -10.12871,-6.03814 -0.45182,-0.41569 1.38782,-5.13288 4.08787,-10.48264 6.27032,-12.42348 13.87634,-31.2547 12.9545,-32.07332 -0.38987,-0.34622 -7.34024,-2.85576 -15.44534,-5.57679 -8.1051,-2.72102 -14.73654,-5.07639 -14.73654,-5.23415 0,-0.15777 1.58389,-5.79209 3.51981,-12.52073 7.01511,-24.38227 8.381,-35.57729 8.30603,-68.07763 -0.062,-26.95861 -0.25564,-29.91905 -2.80491,-42.91695 -1.50592,-7.67851 -4.14877,-18.84726 -5.8731,-24.81944 -1.72423,-5.97217 -3.13791,-11.17465 -3.14142,-11.56105 0,-0.38639 6.74137,-2.93388 14.98866,-5.66109 8.71049,-2.88036 14.99508,-5.50281 14.99508,-6.25715 0,-2.16578 -7.97086,-21.4625 -13.01014,-31.49633 -3.72623,-7.41924 -4.44371,-9.62624 -3.36128,-10.33857 3.47948,-2.28958 19.27188,-11.21241 19.8447,-11.21241 0.89381,0 9.15951,16.63713 13.71367,27.60255 9.12631,21.97453 16.29965,47.88768 20.27055,73.22642 1.94398,12.40498 2.26881,18.69812 2.26881,43.95109 0,25.25298 -0.32483,31.54612 -2.26881,43.95109 -3.9709,25.33875 -11.14424,51.2519 -20.27055,73.22643 -4.8249,11.6173 -12.84034,27.60427 -13.83632,27.59684 -0.4209,-0.003 -4.95355,-2.38275 -10.07256,-5.28803 z M 74.804604,573.96348 c -5.403398,-3.1789 -9.94123,-5.88642 -10.084066,-6.0167 -0.142846,-0.13028 3.056783,-5.08389 7.110284,-11.00803 C 125.86544,477.96781 210.81791,429.42904 306.19416,423.03199 l 10.59997,-0.71095 0,12.3903 0,12.39029 -10.0829,0.6881 c -15.91464,1.08608 -34.52641,3.95244 -35.08307,5.40305 -0.2721,0.70909 0.73344,7.49221 2.23454,15.0736 1.5011,7.58139 2.81649,14.40003 2.9231,15.15256 0.13198,0.9317 -4.09544,2.45737 -13.25004,4.78192 -43.32872,11.00211 -85.78856,35.57397 -116.18844,67.23918 -4.65983,4.85378 -8.72554,8.82507 -9.03491,8.82507 -0.30938,0 -5.94372,-4.75429 -12.52075,-10.56509 l -11.95824,-10.56508 -3.539,4.10169 c -4.1282,4.78458 -19.354429,25.47866 -21.829548,29.66871 -0.933066,1.57955 -2.177854,2.86428 -2.766199,2.85495 -0.588334,-0.009 -5.49067,-2.61789 -10.894069,-5.79681 z m 486.865046,2.94186 c -2.47512,-4.19005 -17.70133,-24.88413 -21.82953,-29.66871 l -3.53894,-4.10169 -11.95832,10.56508 c -6.57694,5.8108 -12.21137,10.56509 -12.52068,10.56509 -0.30942,0 -4.37515,-3.97129 -9.0349,-8.82507 -30.39988,-31.66521 -72.85974,-56.23707 -116.18848,-67.23918 -9.15465,-2.32455 -13.38202,-3.85022 -13.25006,-4.78192 0.10662,-0.75253 1.42205,-7.57117 2.9231,-15.15256 1.50117,-7.58139 2.50666,-14.36451 2.23458,-15.0736 -0.55668,-1.45061 -19.16847,-4.31697 -35.0831,-5.40305 l -10.0829,-0.6881 0,-12.39029 0,-12.3903 10.59997,0.71095 c 95.37242,6.39679 180.32936,54.93648 234.35828,133.89945 6.67209,9.75106 7.19505,10.87655 5.55914,11.96173 -4.61848,3.06354 -18.63898,10.88409 -19.51283,10.88409 -0.53838,0 -1.74223,-1.29237 -2.67533,-2.87192 z"
       id="path2996"
       inkscape:connector-curvature="0" />
  </g>
</svg>
